# xmcd CD database file
#
# Track frame offsets:
#	150
#	14230
#	27977
#	42370
#	57412
#	69205
#	82637
#	94027
#	105182
#	118870
#	132602
#	147200
#
# Disc length: 2100 seconds
#
# Revision: 0
# Processed by: cddbd v1.5.2PL0 Copyright (c) Steve Scherf et al.
# Submitted via: CD2WAV32(JP) R3.22
#
DISCID=9e08320c
DTITLE=ジミー時田 - ジミー時田ブルーグラス・ヒッツ
DYEAR=1993
DGENRE=Bluegrass
TTITLE0=新聞売りのジミー少年
TTITLE1=ワバッシュ・キャノンボール
TTITLE2=オレンジ・ブロッサム・スペシャル
TTITLE3=マウンテン・デュー
TTITLE4=ケンタッキーの青い月
TTITLE5=ジェシー・ジェームス
TTITLE6=スイート・アラリー
TTITLE7=ヨー・カム
TTITLE8=ユー・ドント・ノウ・マイ・マインド
TTITLE9=ウィル･ミート・アゲイン・スイートハート
TTITLE10=ホエン・ユー・ニール・アット・マザーズ・グレイヴ
TTITLE11=ハウ・マウンテン・ガールズ・キャン・ラヴ
EXTD=
EXTT0=
EXTT1=
EXTT2=
EXTT3=
EXTT4=
EXTT5=
EXTT6=
EXTT7=
EXTT8=
EXTT9=
EXTT10=
EXTT11=
PLAYORDER=
